<svg xmlns="http://www.w3.org/2000/svg" xmlns:xlink="http://www.w3.org/1999/xlink" version="1.1" x="0px" y="0px" viewBox="0 0 89.508 90" style="enable-background:new 0 0 89.508 90;" xml:space="preserve"><g><path d="M84.941,29.72H70.103c4.018-1.81,8.583-4.941,10.418-9.373c1.497-3.614,1.735-9.465-5.624-16.825   C72.559,1.185,70.164,0,67.775,0c-2.341,0.004-4.58,1.191-6.303,3.354c-4.1,5.138-8.577,10.692-11.484,14.296   c-0.543-0.188-1.115-0.311-1.721-0.311H41.24c-0.605,0-1.177,0.122-1.72,0.311c-2.908-3.604-7.385-9.158-11.483-14.296   C26.312,1.191,24.073,0.004,21.735,0c-2.391,0-4.786,1.185-7.123,3.521c-7.36,7.36-7.121,13.211-5.625,16.825   c1.835,4.432,6.4,7.563,10.418,9.373H4.567C2.048,29.72,0,31.768,0,34.286v10.96c0,2.519,2.048,4.566,4.567,4.566h3.75   c-0.596,0.771-1.01,1.691-1.01,2.74v32.881c0,2.519,2.048,4.566,4.567,4.566h23.747h1.827h14.613h0.686h24.889   c2.519,0,4.566-2.048,4.566-4.566V52.553c0-1.049-0.414-1.97-1.01-2.74h3.75c2.519,0,4.566-2.048,4.566-4.566v-10.96   C89.508,31.768,87.46,29.72,84.941,29.72z M38.36,49.813h12.787v38.36H38.36V49.813z M51.147,47.986H38.36V30.961   c0.214,0.015,0.414,0.061,0.633,0.064c0.685,0.317,1.441,0.51,2.246,0.51h7.028c0.803,0,1.56-0.192,2.242-0.51   c0.221-0.004,0.422-0.05,0.638-0.064V47.986z M53.349,21.117c2.695-2.016,6.234-4.603,8.999-6.394   c0.973-0.631,1.745-0.938,2.361-0.938c0.551,0,1.371,0.229,2.843,2.016c0.616,0.745,0.803,1.448,0.606,2.272   c-0.772,3.229-6.922,7.157-11.404,9.33l-0.004-0.008c-0.002,0-0.051,0.028-0.08,0.047c-0.432,0.207-0.87,0.421-1.263,0.592   c-0.023,0.011-0.039,0.028-0.061,0.039c-0.669,0.286-1.523,0.597-2.497,0.824c0.473-0.795,0.762-1.712,0.762-2.704v-3.514   C53.611,22.131,53.504,21.613,53.349,21.117z M62.899,4.492c1.239-1.556,2.899-2.665,4.874-2.665c1.727,0,3.692,0.849,5.831,2.985   c16.478,16.477-6.142,24.896-9.775,24.896h-7.647c0.693-0.3,1.163-0.55,1.369-0.667c4.193-2.056,16.17-8.62,11.41-14.403   c-1.455-1.767-2.754-2.68-4.252-2.68c-0.996,0-2.079,0.403-3.354,1.231c-2.729,1.766-6.171,4.273-8.85,6.275   c-0.261-0.343-0.562-0.646-0.896-0.917C54.522,14.941,58.891,9.519,62.899,4.492z M39.062,19.99   c0.496-0.403,1.09-0.653,1.753-0.738c0.146-0.019,0.275-0.086,0.425-0.086h7.028c0.15,0,0.279,0.067,0.426,0.086   c0.663,0.085,1.257,0.335,1.753,0.738c0.218,0.175,0.397,0.371,0.567,0.592c0.387,0.503,0.637,1.096,0.703,1.763   c0.01,0.114,0.067,0.218,0.067,0.336v3.514c0,1.938-1.577,3.515-3.517,3.515H41.24c-1.939,0-3.516-1.577-3.516-3.515v-3.514   c0-0.118,0.057-0.222,0.068-0.336c0.066-0.667,0.316-1.26,0.703-1.763C38.664,20.361,38.844,20.165,39.062,19.99z M15.903,4.813   c2.139-2.137,4.104-2.985,5.832-2.985c1.975,0,3.634,1.109,4.874,2.665c4.008,5.026,8.377,10.449,11.29,14.057   c-0.333,0.271-0.635,0.574-0.896,0.917c-2.679-2.002-6.121-4.51-8.85-6.275c-1.275-0.828-2.358-1.231-3.354-1.231   c-1.498,0-2.797,0.913-4.252,2.68c-4.845,5.887,7.642,12.576,11.62,14.506c0.255,0.136,0.651,0.336,1.179,0.564h-7.667   C22.045,29.709-0.574,21.289,15.903,4.813z M36.664,28.906c-0.969-0.226-1.829-0.535-2.494-0.824   c-0.025-0.015-0.043-0.036-0.07-0.047c-0.36-0.157-0.764-0.356-1.156-0.542c-0.104-0.057-0.166-0.093-0.169-0.097l-0.007,0.011   c-4.483-2.169-10.645-6.101-11.418-9.333c-0.196-0.824-0.009-1.527,0.608-2.276c1.47-1.783,2.29-2.012,2.841-2.012   c0.616,0,1.388,0.307,2.36,0.938c2.765,1.791,6.304,4.378,9,6.394c-0.155,0.496-0.262,1.014-0.262,1.563v3.514   C35.897,27.189,36.188,28.106,36.664,28.906z M1.827,45.246v-10.96c0-1.51,1.229-2.74,2.74-2.74h31.967v16.44h-0.685H11.874H4.567   C3.056,47.986,1.827,46.755,1.827,45.246z M35.621,88.173H11.874c-1.511,0-2.74-1.23-2.74-2.739V52.553   c0-1.509,1.229-2.74,2.74-2.74h23.975h0.685v38.36H35.621z M80.375,52.553v32.881c0,1.509-1.23,2.739-2.74,2.739h-24.66v-38.36   H54.4h23.234C79.145,49.813,80.375,51.044,80.375,52.553z M87.682,45.246c0,1.509-1.229,2.74-2.74,2.74h-7.307H54.4h-1.426v-16.44   h31.967c1.511,0,2.74,1.23,2.74,2.74V45.246z"></path></g></svg>